<svg id="OBJECTS" xmlns="http://www.w3.org/2000/svg" viewBox="0 0 568.36 394.95"><defs><style>.cls-1{fill:#013f7c;}.cls-2{fill:#121936;}.cls-15,.cls-16,.cls-3,.cls-6,.cls-7{fill:#fff;}.cls-4{fill:#f9cad0;}.cls-5{fill:#212121;}.cls-6{opacity:0.89;}.cls-7{opacity:0.81;}.cls-8{fill:#353148;opacity:0.69;}.cls-9{fill:#ff9c9c;}.cls-10{fill:#708cf5;}.cls-11{fill:#0074a3;}.cls-12{fill:#fe7062;}.cls-13{fill:#9dd3ff;}.cls-14{opacity:0.48;}.cls-15{font-size:30.87px;}.cls-15,.cls-16{font-family:Exo2-Bold, Exo2 Bold;font-weight:700;}.cls-16{font-size:19.16px;}.cls-17{fill:#599af2;}.cls-18{fill:#f7a9b4;}.cls-19{opacity:0.31;}.cls-20{fill:#103463;}.cls-21{fill:#ff6969;}.cls-22{fill:none;stroke:#ff6969;stroke-linecap:round;stroke-linejoin:round;stroke-width:5px;}</style></defs><path class="cls-1" d="M509.23,161.51H352.51v-112H509.23Zm-155.72-1H508.23v-110H353.51Z" transform="translate(-98.93 -45.7)"/><rect class="cls-2" x="250.24" y="0.5" width="7.69" height="7.69"/><path class="cls-3" d="M357.36,54.39h-8.69V45.7h8.69Zm-7.69-1h6.69V46.7h-6.69Z" transform="translate(-98.93 -45.7)"/><rect class="cls-2" x="405.71" y="0.79" width="7.69" height="7.69"/><path class="cls-3" d="M512.83,54.67h-8.69V46h8.69Zm-7.69-1h6.69V47h-6.69Z" transform="translate(-98.93 -45.7)"/><rect class="cls-2" x="250.24" y="111.47" width="7.69" height="7.69"/><path class="cls-3" d="M357.36,165.36h-8.69v-8.69h8.69Zm-7.69-1h6.69v-6.69h-6.69Z" transform="translate(-98.93 -45.7)"/><rect class="cls-2" x="405.71" y="111.47" width="7.69" height="7.69"/><path class="cls-3" d="M512.83,165.36h-8.69v-8.69h8.69Zm-7.69-1h6.69v-6.69h-6.69Z" transform="translate(-98.93 -45.7)"/><path class="cls-1" d="M663.74,330.15H509.46V219.91H663.74Zm-153.28-1H662.74V220.91H510.46Z" transform="translate(-98.93 -45.7)"/><rect class="cls-2" x="407.24" y="170.93" width="7.57" height="7.57"/><path class="cls-3" d="M514.24,224.7h-8.57v-8.57h8.57Zm-7.57-1h6.57v-6.57h-6.57Z" transform="translate(-98.93 -45.7)"/><rect class="cls-2" x="560.29" y="171.21" width="7.57" height="7.57"/><path class="cls-3" d="M667.29,225h-8.57v-8.57h8.57Zm-7.57-1h6.57v-6.57h-6.57Z" transform="translate(-98.93 -45.7)"/><rect class="cls-2" x="407.24" y="280.17" width="7.57" height="7.57"/><path class="cls-3" d="M514.24,333.94h-8.57v-8.57h8.57Zm-7.57-1h6.57v-6.57h-6.57Z" transform="translate(-98.93 -45.7)"/><rect class="cls-2" x="560.29" y="280.17" width="7.57" height="7.57"/><path class="cls-3" d="M667.29,333.94h-8.57v-8.57h8.57Zm-7.57-1h6.57v-6.57h-6.57Z" transform="translate(-98.93 -45.7)"/><path class="cls-4" d="M563.79,440.13l-154.25-.07c-14.23,0-25.77-10.26-25.76-22.91l.19-329c0-12.66,11.55-22.91,25.78-22.9L564,65.31c14.23,0,25.76,10.27,25.76,22.92l-.19,329C589.57,429.89,578,440.14,563.79,440.13Z" transform="translate(-98.93 -45.7)"/><path class="cls-2" d="M563.8,440.63h0l-154.25-.07A27.79,27.79,0,0,1,391,433.72a22.08,22.08,0,0,1-7.71-16.58l.18-329c0-12.91,11.8-23.4,26.28-23.4h0L564,64.81a27.79,27.79,0,0,1,18.55,6.84,22.1,22.1,0,0,1,7.71,16.58l-.19,329C590.07,430.14,578.28,440.63,563.8,440.63Zm0-1h0c13.93,0,25.27-10,25.27-22.39l.19-329a21.09,21.09,0,0,0-7.37-15.83A26.8,26.8,0,0,0,564,65.81l-154.25-.07h0c-13.93,0-25.27,10-25.28,22.4l-.18,329A21.09,21.09,0,0,0,391.65,433a26.8,26.8,0,0,0,17.89,6.59Z" transform="translate(-98.93 -45.7)"/><path class="cls-5" d="M557.89,434.15l-142.19-.06c-13.12,0-23.75-9.93-23.74-22.16l.17-318.09c0-12.23,10.65-22.14,23.77-22.14l142.19.07c13.12,0,23.75,9.92,23.74,22.16L581.66,412C581.65,424.25,571,434.16,557.89,434.15Z" transform="translate(-98.93 -45.7)"/><path class="cls-6" d="M460.58,95.43h0a2.85,2.85,0,0,1-1.89-.7,2.35,2.35,0,0,1,0-3.54,2.8,2.8,0,0,1,1.88-.7h0a2.81,2.81,0,0,1,1.89.71,2.29,2.29,0,0,1,.8,1.76h0A2.59,2.59,0,0,1,460.58,95.43Zm0-3.94a1.84,1.84,0,0,0-1.22.45,1.38,1.38,0,0,0-.47,1,1.34,1.34,0,0,0,.47,1,1.82,1.82,0,0,0,1.22.45h0A1.59,1.59,0,0,0,462.27,93a1.36,1.36,0,0,0-.47-1,1.82,1.82,0,0,0-1.22-.45Z" transform="translate(-98.93 -45.7)"/><path class="cls-6" d="M450.91,94.21a1.25,1.25,0,1,1,0-2.5h0A1.29,1.29,0,0,1,452.24,93h0A1.29,1.29,0,0,1,450.91,94.21Zm0-1.5c-.19,0-.34.11-.34.25s.67.27.67,0-.15-.25-.33-.25Z" transform="translate(-98.93 -45.7)"/><path class="cls-6" d="M503.81,94.78H470.16a1.9,1.9,0,0,1-2-1.82,1.76,1.76,0,0,1,.59-1.3,2,2,0,0,1,1.37-.51h33.65a2.07,2.07,0,0,1,1.37.52,1.74,1.74,0,0,1,.59,1.3A1.89,1.89,0,0,1,503.81,94.78Zm-33.65-2.64a1,1,0,0,0-.7.26.74.74,0,0,0-.26.55.9.9,0,0,0,1,.82h33.65a.89.89,0,0,0,1-.81.74.74,0,0,0-.26-.56,1.08,1.08,0,0,0-.7-.26Z" transform="translate(-98.93 -45.7)"/><path class="cls-3" d="M505,423.21H468.56a6.06,6.06,0,0,1-6.07-6.08v-.26a6.08,6.08,0,0,1,6.07-6.08h0l36.47,0a6.08,6.08,0,0,1,6.08,6.08v.26A6.08,6.08,0,0,1,505,423.21Zm-36.48-11.43a5.09,5.09,0,0,0-5.07,5.08v.26a5.07,5.07,0,0,0,5.07,5.08H505a5.08,5.08,0,0,0,5.08-5.07v-.26A5.09,5.09,0,0,0,505,411.8l-36.47,0Z" transform="translate(-98.93 -45.7)"/><rect class="cls-3" x="299.46" y="67.65" width="177.76" height="282.7"/><rect class="cls-7" x="293.12" y="67.64" width="189.77" height="282.7"/><path class="cls-8" d="M562.26,176.05h0l-77.72-.12a.5.5,0,0,1-.5-.5.5.5,0,0,1,.5-.5h0l77.72.12a.5.5,0,0,1,.5.5A.51.51,0,0,1,562.26,176.05Z" transform="translate(-98.93 -45.7)"/><path class="cls-8" d="M523.34,210.15h0l-38.86-.06a.5.5,0,0,1-.5-.5.51.51,0,0,1,.5-.5h0l38.86.06a.5.5,0,0,1,.5.5A.5.5,0,0,1,523.34,210.15Z" transform="translate(-98.93 -45.7)"/><path class="cls-8" d="M507.1,186.22h0l-22.59,0a.51.51,0,0,1-.5-.51.5.5,0,0,1,.5-.49h0l22.59,0a.5.5,0,0,1,.5.5A.5.5,0,0,1,507.1,186.22Z" transform="translate(-98.93 -45.7)"/><path class="cls-8" d="M562.23,186.3h0l-49.69-.05a.5.5,0,0,1,0-1h0l49.69.05a.5.5,0,0,1,.5.5A.5.5,0,0,1,562.23,186.3Z" transform="translate(-98.93 -45.7)"/><path class="cls-8" d="M528.45,198.34h0l-43.93,0a.5.5,0,0,1,0-1h0l43.94,0a.52.52,0,0,1,.5.51A.5.5,0,0,1,528.45,198.34Z" transform="translate(-98.93 -45.7)"/><path class="cls-8" d="M562.23,198.42h0l-29,0a.52.52,0,0,1-.5-.51.5.5,0,0,1,.5-.49h0l29,0a.5.5,0,0,1,0,1Z" transform="translate(-98.93 -45.7)"/><path class="cls-8" d="M562.26,142.33h0l-77.72-.12a.5.5,0,0,1-.5-.51.49.49,0,0,1,.5-.49h0l77.72.12a.5.5,0,0,1,.5.5A.51.51,0,0,1,562.26,142.33Z" transform="translate(-98.93 -45.7)"/><path class="cls-8" d="M507.1,152.5h0l-22.59-.05a.5.5,0,0,1-.5-.5.51.51,0,0,1,.5-.5h0l22.59.05a.5.5,0,0,1,.5.5A.5.5,0,0,1,507.1,152.5Z" transform="translate(-98.93 -45.7)"/><path class="cls-8" d="M562.23,152.57h0l-49.69,0a.5.5,0,0,1,0-1h0l49.69,0a.51.51,0,0,1,.5.51A.49.49,0,0,1,562.23,152.57Z" transform="translate(-98.93 -45.7)"/><path class="cls-8" d="M528.45,164.62h0l-43.93,0a.5.5,0,0,1-.5-.5.5.5,0,0,1,.5-.5h0l43.94,0a.51.51,0,0,1,.5.5A.5.5,0,0,1,528.45,164.62Z" transform="translate(-98.93 -45.7)"/><path class="cls-8" d="M562.23,164.7h0l-29,0a.5.5,0,0,1-.5-.5.51.51,0,0,1,.5-.5h0l29,0a.5.5,0,0,1,0,1Z" transform="translate(-98.93 -45.7)"/><rect class="cls-9" x="316.44" y="89.11" width="56.93" height="81.84"/><rect class="cls-10" x="316.44" y="89.11" width="56.93" height="19.28"/><path class="cls-2" d="M511.9,304.42H415.05V231.73H511.9Zm-95.85-1H510.9V232.73H416.05Z" transform="translate(-98.93 -45.7)"/><rect class="cls-2" x="314.26" y="184.05" width="4.74" height="4.97"/><rect class="cls-2" x="409.96" y="184.24" width="4.74" height="4.97"/><rect class="cls-2" x="314.26" y="255.74" width="4.74" height="4.97"/><rect class="cls-2" x="409.96" y="255.74" width="4.74" height="4.97"/><path class="cls-11" d="M463.24,251.73H425.32a3,3,0,0,1-3-3h0a3,3,0,0,1,3-3h37.92a3,3,0,0,1,3,3h0A3,3,0,0,1,463.24,251.73Z" transform="translate(-98.93 -45.7)"/><path class="cls-12" d="M463.24,276.6H425.32a3,3,0,0,1-3-3h0a3,3,0,0,1,3-3h37.92a3,3,0,0,1,3,3h0A3,3,0,0,1,463.24,276.6Z" transform="translate(-98.93 -45.7)"/><path class="cls-11" d="M472.6,263.73H449.09a3,3,0,0,1-3-3h0a3,3,0,0,1,3-3H472.6a3,3,0,0,1,3,3h0A3,3,0,0,1,472.6,263.73Z" transform="translate(-98.93 -45.7)"/><path class="cls-12" d="M486.58,251.73H474.37a3,3,0,0,1-3-3h0a3,3,0,0,1,3-3h12.21a3,3,0,0,1,3,3h0A3,3,0,0,1,486.58,251.73Z" transform="translate(-98.93 -45.7)"/><path class="cls-11" d="M459.92,290.3h-34.6a3,3,0,0,1-3-3h0a3,3,0,0,1,3-3h34.6a3,3,0,0,1,3,3h0A3,3,0,0,1,459.92,290.3Z" transform="translate(-98.93 -45.7)"/><path class="cls-12" d="M481.5,290.3H470.67a3,3,0,0,1-3-3h0a3,3,0,0,1,3-3H481.5a3,3,0,0,1,3,3h0A3,3,0,0,1,481.5,290.3Z" transform="translate(-98.93 -45.7)"/><path class="cls-12" d="M437.53,263.73H425.32a3,3,0,0,1-3-3h0a3,3,0,0,1,3-3h12.21a3,3,0,0,1,3,3h0A3,3,0,0,1,437.53,263.73Z" transform="translate(-98.93 -45.7)"/><rect class="cls-1" x="316.03" y="278.31" width="89.48" height="50.21" rx="1.43"/><circle class="cls-3" cx="336.65" cy="301.43" r="13.56"/><path class="cls-3" d="M491.91,336.89H459.14a.5.5,0,0,1-.5-.5.5.5,0,0,1,.5-.5h32.77a.5.5,0,0,1,.5.5A.5.5,0,0,1,491.91,336.89Z" transform="translate(-98.93 -45.7)"/><path class="cls-3" d="M497.43,355.58H479.37a.5.5,0,0,1-.5-.5.5.5,0,0,1,.5-.5h18.06a.5.5,0,0,1,.5.5A.51.51,0,0,1,497.43,355.58Z" transform="translate(-98.93 -45.7)"/><path class="cls-3" d="M475,362.33H457a.51.51,0,0,1-.5-.5.5.5,0,0,1,.5-.5H475a.5.5,0,0,1,.5.5A.5.5,0,0,1,475,362.33Z" transform="translate(-98.93 -45.7)"/><path class="cls-3" d="M477.22,349.08H457a.51.51,0,0,1-.5-.5.5.5,0,0,1,.5-.5h20.26a.5.5,0,0,1,.5.5A.51.51,0,0,1,477.22,349.08Z" transform="translate(-98.93 -45.7)"/><path class="cls-13" d="M496.38,349.08H483.09a.5.5,0,0,1-.5-.5.5.5,0,0,1,.5-.5h13.29a.5.5,0,0,1,.5.5A.5.5,0,0,1,496.38,349.08Z" transform="translate(-98.93 -45.7)"/><path class="cls-13" d="M469.29,355.58H456.06a.51.51,0,0,1-.5-.5.5.5,0,0,1,.5-.5h13.23a.5.5,0,0,1,.5.5A.51.51,0,0,1,469.29,355.58Z" transform="translate(-98.93 -45.7)"/><rect class="cls-3" x="417.84" y="271.73" width="85.47" height="63.93"/><g class="cls-14"><path class="cls-2" d="M602.74,381.86H516.27V316.93h86.47Zm-85.47-1h84.47V317.93H517.27Z" transform="translate(-98.93 -45.7)"/><rect class="cls-2" x="415.73" y="269.52" width="4.22" height="4.43"/><rect class="cls-2" x="501.07" y="269.68" width="4.22" height="4.43"/><rect class="cls-2" x="415.73" y="333.44" width="4.22" height="4.43"/><rect class="cls-2" x="501.07" y="333.44" width="4.22" height="4.43"/></g><path class="cls-10" d="M566.88,333.22H529a3,3,0,0,1-3-3h0a3,3,0,0,1,3-3h37.92a3,3,0,0,1,3,3h0A3,3,0,0,1,566.88,333.22Z" transform="translate(-98.93 -45.7)"/><path class="cls-4" d="M566.88,358.1H529a3,3,0,0,1-3-3h0a3,3,0,0,1,3-3h37.92a3,3,0,0,1,3,3h0A3,3,0,0,1,566.88,358.1Z" transform="translate(-98.93 -45.7)"/><path class="cls-10" d="M576.24,345.22H552.72a3,3,0,0,1-3-3h0a3,3,0,0,1,3-3h23.52a3,3,0,0,1,3,3h0A3,3,0,0,1,576.24,345.22Z" transform="translate(-98.93 -45.7)"/><path class="cls-4" d="M590.22,333.22H578a3,3,0,0,1-3-3h0a3,3,0,0,1,3-3h12.21a3,3,0,0,1,3,3h0A3,3,0,0,1,590.22,333.22Z" transform="translate(-98.93 -45.7)"/><path class="cls-10" d="M563.56,371.79H529a3,3,0,0,1-3-3h0a3,3,0,0,1,3-3h34.6a3,3,0,0,1,3,3h0A3,3,0,0,1,563.56,371.79Z" transform="translate(-98.93 -45.7)"/><path class="cls-4" d="M585.14,371.79H574.3a3,3,0,0,1-3-3h0a3,3,0,0,1,3-3h10.84a3,3,0,0,1,3,3h0A3,3,0,0,1,585.14,371.79Z" transform="translate(-98.93 -45.7)"/><path class="cls-4" d="M541.17,345.22H529a3,3,0,0,1-3-3h0a3,3,0,0,1,3-3h12.21a3,3,0,0,1,3,3h0A3,3,0,0,1,541.17,345.22Z" transform="translate(-98.93 -45.7)"/><rect class="cls-12" x="456.36" y="106.09" width="66.53" height="58.81" rx="1.43"/><path class="cls-3" d="M565.65,161.41a.49.49,0,0,1-.35-.15l-4.61-4.61a.5.5,0,0,1,0-.71.5.5,0,0,1,.7,0l4.61,4.62a.48.48,0,0,1,0,.7A.47.47,0,0,1,565.65,161.41Z" transform="translate(-98.93 -45.7)"/><path class="cls-3" d="M561,161.41a.47.47,0,0,1-.35-.15.48.48,0,0,1,0-.7l4.61-4.62a.5.5,0,0,1,.7,0,.5.5,0,0,1,0,.71l-4.61,4.61A.47.47,0,0,1,561,161.41Z" transform="translate(-98.93 -45.7)"/><text class="cls-15" transform="translate(465.42 145.34)">&lt;/&gt;</text><rect class="cls-11" x="397.46" y="192.99" width="148.19" height="58.81" rx="1.43"/><path class="cls-3" d="M506.75,248.31a.51.51,0,0,1-.36-.15l-4.61-4.61a.5.5,0,1,1,.71-.71l4.61,4.61a.51.51,0,0,1,0,.71A.5.5,0,0,1,506.75,248.31Z" transform="translate(-98.93 -45.7)"/><path class="cls-3" d="M502.13,248.31a.5.5,0,0,1-.35-.15.51.51,0,0,1,0-.71l4.61-4.61a.5.5,0,1,1,.71.71l-4.61,4.61A.51.51,0,0,1,502.13,248.31Z" transform="translate(-98.93 -45.7)"/><path class="cls-3" d="M544.29,260.3h-33a.5.5,0,0,1,0-1h33a.5.5,0,0,1,0,1Z" transform="translate(-98.93 -45.7)"/><path class="cls-3" d="M582.28,260.3H552.87a.5.5,0,0,1,0-1h29.41a.5.5,0,0,1,0,1Z" transform="translate(-98.93 -45.7)"/><path class="cls-3" d="M540.71,278.87H511.3a.5.5,0,0,1-.5-.5.51.51,0,0,1,.5-.5h29.41a.51.51,0,0,1,.5.5A.5.5,0,0,1,540.71,278.87Z" transform="translate(-98.93 -45.7)"/><path class="cls-3" d="M568.54,269.06H539.13a.5.5,0,0,1-.5-.5.51.51,0,0,1,.5-.5h29.41a.51.51,0,0,1,.5.5A.5.5,0,0,1,568.54,269.06Z" transform="translate(-98.93 -45.7)"/><path class="cls-3" d="M530.61,269.06H511.3a.5.5,0,0,1-.5-.5.51.51,0,0,1,.5-.5h19.31a.51.51,0,0,1,.5.5A.5.5,0,0,1,530.61,269.06Z" transform="translate(-98.93 -45.7)"/><path class="cls-3" d="M561.62,278.87H549.75a.5.5,0,0,1-.5-.5.5.5,0,0,1,.5-.5h11.87a.51.51,0,0,1,.5.5A.5.5,0,0,1,561.62,278.87Z" transform="translate(-98.93 -45.7)"/><path class="cls-3" d="M607.81,260.3h-33a.5.5,0,0,1,0-1h33a.5.5,0,0,1,0,1Z" transform="translate(-98.93 -45.7)"/><path class="cls-3" d="M624.71,260.3H598.57a.5.5,0,0,1,0-1h26.14a.5.5,0,0,1,0,1Z" transform="translate(-98.93 -45.7)"/><path class="cls-3" d="M604.23,278.87H574.82a.5.5,0,0,1-.5-.5.51.51,0,0,1,.5-.5h29.41a.51.51,0,0,1,.5.5A.5.5,0,0,1,604.23,278.87Z" transform="translate(-98.93 -45.7)"/><path class="cls-3" d="M632.06,269.06H602.65a.5.5,0,0,1-.5-.5.51.51,0,0,1,.5-.5h29.41a.51.51,0,0,1,.5.5A.5.5,0,0,1,632.06,269.06Z" transform="translate(-98.93 -45.7)"/><path class="cls-3" d="M594.13,269.06H574.82a.5.5,0,0,1-.5-.5.51.51,0,0,1,.5-.5h19.31a.51.51,0,0,1,.5.5A.5.5,0,0,1,594.13,269.06Z" transform="translate(-98.93 -45.7)"/><path class="cls-3" d="M625.14,278.87H613.27a.5.5,0,0,1-.5-.5.5.5,0,0,1,.5-.5h11.87a.51.51,0,0,1,.5.5A.5.5,0,0,1,625.14,278.87Z" transform="translate(-98.93 -45.7)"/><path class="cls-1" d="M239.7,269.41H185.64V230.59H239.7Zm-53.06-1H238.7V231.59H186.64Z" transform="translate(-98.93 -45.7)"/><rect class="cls-2" x="85.9" y="184.09" width="2.62" height="2.62"/><path class="cls-3" d="M188,232.9h-3.62v-3.62H188Zm-2.62-1H187v-1.62h-1.62Z" transform="translate(-98.93 -45.7)"/><rect class="cls-2" x="138.88" y="184.18" width="2.62" height="2.62"/><path class="cls-3" d="M240.93,233h-3.62v-3.62h3.62Zm-2.62-1h1.62v-1.62h-1.62Z" transform="translate(-98.93 -45.7)"/><rect class="cls-2" x="85.9" y="221.9" width="2.62" height="2.62"/><path class="cls-3" d="M188,270.72h-3.62V267.1H188Zm-2.62-1H187V268.1h-1.62Z" transform="translate(-98.93 -45.7)"/><rect class="cls-2" x="138.88" y="221.9" width="2.62" height="2.62"/><path class="cls-3" d="M240.93,270.72h-3.62V267.1h3.62Zm-2.62-1h1.62V268.1h-1.62Z" transform="translate(-98.93 -45.7)"/><path class="cls-3" d="M203.79,289.94H129.36a2,2,0,0,1-1.79-1.11L99.64,233.19a2,2,0,0,1,1.79-2.9h74.9a2,2,0,0,1,1.79,1.12l27.46,55.64A2,2,0,0,1,203.79,289.94Z" transform="translate(-98.93 -45.7)"/><path class="cls-2" d="M203.79,290.44H129.36a2.5,2.5,0,0,1-2.24-1.38L99.2,233.41a2.45,2.45,0,0,1,.1-2.43,2.48,2.48,0,0,1,2.13-1.19h74.9a2.51,2.51,0,0,1,2.24,1.39L206,286.83a2.46,2.46,0,0,1-.12,2.42A2.49,2.49,0,0,1,203.79,290.44ZM101.43,230.79a1.49,1.49,0,0,0-1.34,2.17L128,288.61a1.49,1.49,0,0,0,1.34.83h74.43a1.49,1.49,0,0,0,1.27-.71,1.47,1.47,0,0,0,.07-1.46l-27.46-55.64a1.48,1.48,0,0,0-1.34-.84Z" transform="translate(-98.93 -45.7)"/><path class="cls-11" d="M245.15,289.73a3.7,3.7,0,0,0-3.7-3.69H201.64l-26-52.14a1,1,0,0,0-.9-.56H101.06a1,1,0,0,0-.89,1.45l27.63,55.47a1,1,0,0,0,.9.56l73.55-.32h42.9Z" transform="translate(-98.93 -45.7)"/><rect class="cls-3" x="107.24" y="242.12" width="4.92" height="1.23" rx="0.13"/><rect class="cls-3" x="115.72" y="242.12" width="4.92" height="1.23" rx="0.13"/><path class="cls-3" d="M152.46,266.69c-2.16,2.16-6.18,1.63-9-1.17s-3.32-6.82-1.17-9,6.17-1.63,9,1.17S154.61,264.54,152.46,266.69Z" transform="translate(-98.93 -45.7)"/><path class="cls-2" d="M149,268.51a8.53,8.53,0,0,1-5.9-2.64c-3-3-3.52-7.33-1.17-9.68s6.69-1.82,9.68,1.18,3.51,7.33,1.17,9.67A5.24,5.24,0,0,1,149,268.51Zm-3.29-12.79a4.22,4.22,0,0,0-3.07,1.18c-2,2-1.44,5.66,1.17,8.27s6.31,3.12,8.26,1.17,1.43-5.67-1.17-8.27A7.58,7.58,0,0,0,145.74,255.72Z" transform="translate(-98.93 -45.7)"/><path class="cls-3" d="M149.71,270.26a10.83,10.83,0,0,1-7.46-3.35c-3.76-3.76-4.45-9.2-1.53-12.12s8.36-2.23,12.13,1.53,4.45,9.21,1.53,12.13A6.46,6.46,0,0,1,149.71,270.26Zm-4.33-16.79a6,6,0,0,0-4.31,1.67c-2.72,2.73-2,7.85,1.54,11.42a10.72,10.72,0,0,0,6.06,3.14,5.88,5.88,0,0,0,7-7,11.28,11.28,0,0,0-9.2-9.2A9.57,9.57,0,0,0,145.38,253.47Z" transform="translate(-98.93 -45.7)"/><rect class="cls-1" x="93.15" y="191.99" width="41.29" height="24" rx="12"/><text class="cls-16" transform="translate(98.77 209.7)">&lt;/&gt;</text><path class="cls-2" d="M123.57,439.54a3.93,3.93,0,0,1-3.94-3.91L119,302.06a3.94,3.94,0,0,1,3.92-3.95l142.39-.65h0a3.94,3.94,0,0,1,3.94,3.92l.61,133.56a3.93,3.93,0,0,1-3.92,3.95l-142.39.65ZM265.35,298.46h0l-142.4.65a2.89,2.89,0,0,0-2.07.87,2.93,2.93,0,0,0-.85,2.08l.61,133.56a2.94,2.94,0,0,0,2.94,2.92h0l142.4-.65a2.94,2.94,0,0,0,2.92-2.95l-.61-133.56A3,3,0,0,0,265.35,298.46Z" transform="translate(-98.93 -45.7)"/><path class="cls-3" d="M263.55,308.34,264.12,432a3.44,3.44,0,0,1-3.42,3.45l-131.84.6a3.44,3.44,0,0,1-3.45-3.42L124.85,309a3.43,3.43,0,0,1,3.42-3.45l131.83-.6A3.43,3.43,0,0,1,263.55,308.34Z" transform="translate(-98.93 -45.7)"/><path class="cls-1" d="M269.25,293.53l0,8.27-150.35.69,0-8.44a3.29,3.29,0,0,1,3.27-3.3l143.61-.66A3.47,3.47,0,0,1,269.25,293.53Z" transform="translate(-98.93 -45.7)"/><path class="cls-3" d="M126.33,298.93a2.38,2.38,0,1,1,2.38-2.38A2.38,2.38,0,0,1,126.33,298.93Zm0-4a1.63,1.63,0,1,0,1.63,1.62A1.63,1.63,0,0,0,126.33,294.93Z" transform="translate(-98.93 -45.7)"/><path class="cls-3" d="M134.69,298.93a2.38,2.38,0,1,1,2.37-2.38A2.39,2.39,0,0,1,134.69,298.93Zm0-4a1.63,1.63,0,1,0,1.62,1.62A1.63,1.63,0,0,0,134.69,294.93Z" transform="translate(-98.93 -45.7)"/><path class="cls-3" d="M142.81,298.93a2.38,2.38,0,1,1,2.37-2.38A2.39,2.39,0,0,1,142.81,298.93Zm0-4a1.63,1.63,0,1,0,1.62,1.62A1.63,1.63,0,0,0,142.81,294.93Z" transform="translate(-98.93 -45.7)"/><path class="cls-17" d="M191.74,345.87H140.3a.5.5,0,0,1-.5-.5.51.51,0,0,1,.5-.5h51.44a.5.5,0,0,1,.5.5A.5.5,0,0,1,191.74,345.87Z" transform="translate(-98.93 -45.7)"/><path class="cls-10" d="M206.47,323.64H140.3a.51.51,0,0,1-.5-.5.5.5,0,0,1,.5-.5h66.17a.5.5,0,0,1,.5.5A.5.5,0,0,1,206.47,323.64Z" transform="translate(-98.93 -45.7)"/><path class="cls-8" d="M228.53,323.64H214.79a.51.51,0,0,1-.5-.5.5.5,0,0,1,.5-.5h13.74a.5.5,0,0,1,.5.5A.51.51,0,0,1,228.53,323.64Z" transform="translate(-98.93 -45.7)"/><path class="cls-10" d="M206.47,370.23H140.3a.51.51,0,0,1-.5-.5.5.5,0,0,1,.5-.5h66.17a.5.5,0,0,1,.5.5A.5.5,0,0,1,206.47,370.23Z" transform="translate(-98.93 -45.7)"/><path class="cls-17" d="M228.53,370.23H214.79a.51.51,0,0,1-.5-.5.5.5,0,0,1,.5-.5h13.74a.5.5,0,0,1,.5.5A.51.51,0,0,1,228.53,370.23Z" transform="translate(-98.93 -45.7)"/><path class="cls-10" d="M228.53,345.87H214.79a.5.5,0,0,1-.5-.5.51.51,0,0,1,.5-.5h13.74a.51.51,0,0,1,.5.5A.5.5,0,0,1,228.53,345.87Z" transform="translate(-98.93 -45.7)"/><path class="cls-8" d="M251.14,345.87H237.4a.5.5,0,0,1-.5-.5.51.51,0,0,1,.5-.5h13.74a.51.51,0,0,1,.5.5A.5.5,0,0,1,251.14,345.87Z" transform="translate(-98.93 -45.7)"/><path class="cls-8" d="M184.41,334.58H140.3a.5.5,0,0,1,0-1h44.11a.5.5,0,1,1,0,1Z" transform="translate(-98.93 -45.7)"/><path class="cls-18" d="M211.88,334.58H192.53a.5.5,0,0,1,0-1h19.35a.5.5,0,1,1,0,1Z" transform="translate(-98.93 -45.7)"/><path class="cls-8" d="M211.88,358H167.77a.5.5,0,1,1,0-1h44.11a.5.5,0,0,1,0,1Z" transform="translate(-98.93 -45.7)"/><path class="cls-18" d="M159.65,358H140.3a.5.5,0,0,1,0-1h19.35a.5.5,0,0,1,0,1Z" transform="translate(-98.93 -45.7)"/><path class="cls-18" d="M206.47,385.93H140.3a.5.5,0,0,1-.5-.5.51.51,0,0,1,.5-.5h66.17a.5.5,0,0,1,.5.5A.5.5,0,0,1,206.47,385.93Z" transform="translate(-98.93 -45.7)"/><path class="cls-8" d="M228.53,385.93H214.79a.5.5,0,0,1-.5-.5.51.51,0,0,1,.5-.5h13.74a.51.51,0,0,1,.5.5A.5.5,0,0,1,228.53,385.93Z" transform="translate(-98.93 -45.7)"/><path class="cls-17" d="M206.47,408.17H140.3a.51.51,0,0,1-.5-.5.5.5,0,0,1,.5-.5h66.17a.5.5,0,0,1,.5.5A.5.5,0,0,1,206.47,408.17Z" transform="translate(-98.93 -45.7)"/><path class="cls-10" d="M228.53,408.17H214.79a.51.51,0,0,1-.5-.5.5.5,0,0,1,.5-.5h13.74a.5.5,0,0,1,.5.5A.51.51,0,0,1,228.53,408.17Z" transform="translate(-98.93 -45.7)"/><path class="cls-8" d="M251.14,408.17H237.4a.51.51,0,0,1-.5-.5.5.5,0,0,1,.5-.5h13.74a.5.5,0,0,1,.5.5A.51.51,0,0,1,251.14,408.17Z" transform="translate(-98.93 -45.7)"/><path class="cls-8" d="M184.41,396.87H140.3a.5.5,0,0,1-.5-.5.51.51,0,0,1,.5-.5h44.11a.5.5,0,0,1,.5.5A.5.5,0,0,1,184.41,396.87Z" transform="translate(-98.93 -45.7)"/><path class="cls-18" d="M211.88,396.87H192.53a.5.5,0,0,1-.5-.5.5.5,0,0,1,.5-.5h19.35a.5.5,0,0,1,.5.5A.5.5,0,0,1,211.88,396.87Z" transform="translate(-98.93 -45.7)"/><path class="cls-8" d="M211.88,420.3H167.77a.5.5,0,0,1-.5-.5.5.5,0,0,1,.5-.5h44.11a.5.5,0,0,1,.5.5A.5.5,0,0,1,211.88,420.3Z" transform="translate(-98.93 -45.7)"/><path class="cls-18" d="M159.65,420.3H140.3a.5.5,0,0,1-.5-.5.51.51,0,0,1,.5-.5h19.35a.5.5,0,0,1,.5.5A.5.5,0,0,1,159.65,420.3Z" transform="translate(-98.93 -45.7)"/><rect class="cls-11" x="204.86" y="395.16" width="100.78" height="44.84" rx="4.63" transform="translate(411.56 789.46) rotate(180)"/><path class="cls-3" d="M282,417.76H250.14a.5.5,0,0,1,0-1H282a.5.5,0,0,1,0,1Z" transform="translate(-98.93 -45.7)"/><path class="cls-3" d="M260.22,407.71H228.35a.51.51,0,0,1-.5-.5.5.5,0,0,1,.5-.5h31.87a.5.5,0,0,1,.5.5A.5.5,0,0,1,260.22,407.71Z" transform="translate(-98.93 -45.7)"/><path class="cls-13" d="M290.39,407.71H269.46a.51.51,0,0,1-.5-.5.5.5,0,0,1,.5-.5h20.93a.5.5,0,0,1,.5.5A.51.51,0,0,1,290.39,407.71Z" transform="translate(-98.93 -45.7)"/><path class="cls-3" d="M260.22,427.4H228.35a.5.5,0,0,1,0-1h31.87a.5.5,0,0,1,0,1Z" transform="translate(-98.93 -45.7)"/><path class="cls-13" d="M283.25,427.4H269.46a.5.5,0,1,1,0-1h13.79a.5.5,0,0,1,0,1Z" transform="translate(-98.93 -45.7)"/><path class="cls-13" d="M240.34,417.76H227.48a.5.5,0,0,1,0-1h12.86a.5.5,0,1,1,0,1Z" transform="translate(-98.93 -45.7)"/><path class="cls-3" d="M215.78,405.9a.52.52,0,0,1-.35-.14l-4.61-4.62a.49.49,0,1,1,.7-.7l4.61,4.61a.5.5,0,0,1-.35.85Z" transform="translate(-98.93 -45.7)"/><path class="cls-3" d="M211.17,405.9a.5.5,0,0,1-.35-.85l4.61-4.61a.49.49,0,1,1,.7.7l-4.61,4.62A.5.5,0,0,1,211.17,405.9Z" transform="translate(-98.93 -45.7)"/><path class="cls-3" d="M443.12,188H345.6c-2.49,0-4.5-1.71-4.5-3.81V112.93c0-2.1,2-3.81,4.5-3.81h97.52c2.49,0,4.51,1.71,4.51,3.81V184.2C447.63,186.3,445.61,188,443.12,188Z" transform="translate(-98.93 -45.7)"/><path class="cls-2" d="M443.12,188.51H345.6c-2.76,0-5-1.87-5-4.17V122.9l107.54-.46v61.9C448.13,186.64,445.88,188.51,443.12,188.51ZM341.59,123.9v60.44c0,1.75,1.8,3.17,4,3.17h97.52c2.21,0,4-1.42,4-3.17v-60.9Z" transform="translate(-98.93 -45.7)"/><path class="cls-11" d="M340.52,123.87v-11c0-2.06,2-3.74,4.55-3.74H443.5c2.51,0,4.55,1.68,4.55,3.74v10.53" transform="translate(-98.93 -45.7)"/><path class="cls-3" d="M348.78,118.9a2.26,2.26,0,1,1,2.18-2.25A2.21,2.21,0,0,1,348.78,118.9Zm0-3.51a1.26,1.26,0,1,0,1.18,1.26A1.22,1.22,0,0,0,348.78,115.39Z" transform="translate(-98.93 -45.7)"/><path class="cls-3" d="M355.07,118.9a2.26,2.26,0,1,1,2.17-2.25A2.22,2.22,0,0,1,355.07,118.9Zm0-3.51a1.26,1.26,0,1,0,1.17,1.26A1.22,1.22,0,0,0,355.07,115.39Z" transform="translate(-98.93 -45.7)"/><path class="cls-3" d="M361.23,118.9a2.26,2.26,0,1,1,2.18-2.25A2.21,2.21,0,0,1,361.23,118.9Zm0-3.51a1.26,1.26,0,1,0,1.18,1.26A1.22,1.22,0,0,0,361.23,115.39Z" transform="translate(-98.93 -45.7)"/><g class="cls-19"><path class="cls-20" d="M439.8,183.12H348.93a3.53,3.53,0,0,1-3.52-3.52V129.19a3.53,3.53,0,0,1,3.52-3.53H439.8a3.53,3.53,0,0,1,3.52,3.53V179.6A3.53,3.53,0,0,1,439.8,183.12Zm-90.87-56.46a2.53,2.53,0,0,0-2.52,2.53V179.6a2.52,2.52,0,0,0,2.52,2.52H439.8a2.52,2.52,0,0,0,2.52-2.52V129.19a2.53,2.53,0,0,0-2.52-2.53Z" transform="translate(-98.93 -45.7)"/><path class="cls-8" d="M381.41,174.85h-25V146.22h25Zm-24-1h23V147.22h-23Z" transform="translate(-98.93 -45.7)"/><polygon class="cls-10" points="281.98 98.14 257.95 98.14 257.95 88.4 258.5 88.4 281.98 88.4 281.98 98.14"/><polygon class="cls-10" points="294.64 110.72 294.64 88.4 333.1 88.4 333.1 88.91 333.1 110.72 294.64 110.72"/><polygon class="cls-4" points="281.87 98.14 257.84 98.14 257.84 88.4 258.39 88.4 281.87 88.4 281.87 98.14"/><polygon class="cls-4" points="294.53 110.72 294.53 88.4 332.98 88.4 332.98 88.91 332.98 110.72 294.53 110.72"/><path class="cls-8" d="M432.52,176.11H393.07V162.54h39.45Zm-38.45-1h37.45V163.54H394.07Z" transform="translate(-98.93 -45.7)"/></g><polygon class="cls-4" points="281.87 98.14 257.84 98.14 257.84 88.4 258.39 88.4 281.87 88.4 281.87 98.14"/><polygon class="cls-4" points="294.53 110.72 294.53 88.4 332.98 88.4 332.98 88.91 332.98 110.72 294.53 110.72"/><path class="cls-3" d="M401.25,147.88a3.15,3.15,0,1,1,3.15-3.15A3.15,3.15,0,0,1,401.25,147.88Zm0-5.55a2.4,2.4,0,1,0,2.4,2.4A2.41,2.41,0,0,0,401.25,142.33Z" transform="translate(-98.93 -45.7)"/><path class="cls-3" d="M412.84,147.88a3.15,3.15,0,1,1,3.15-3.15A3.15,3.15,0,0,1,412.84,147.88Zm0-5.55a2.4,2.4,0,1,0,2.4,2.4A2.41,2.41,0,0,0,412.84,142.33Z" transform="translate(-98.93 -45.7)"/><path class="cls-3" d="M424.11,147.88a3.15,3.15,0,1,1,3.15-3.15A3.15,3.15,0,0,1,424.11,147.88Zm0-5.55a2.4,2.4,0,1,0,2.4,2.4A2.41,2.41,0,0,0,424.11,142.33Z" transform="translate(-98.93 -45.7)"/><path class="cls-21" d="M295,367l-3.25,3.63-18.42,21.2a2,2,0,0,1-3.53-1.31l-.28-46.66a2.22,2.22,0,0,1,2.26-2.24l21.85-.37Z" transform="translate(-98.93 -45.7)"/><path class="cls-2" d="M273.1,343.87a2.23,2.23,0,0,1,2.26-2.24l18.24-.31v-.06l-21.85.37a2.22,2.22,0,0,0-2.26,2.24l.28,46.66a2,2,0,0,0,3.53,1.31l.33-.38a2,2,0,0,1-.25-.93Z" transform="translate(-98.93 -45.7)"/><path class="cls-3" d="M273.51,385.56a.5.5,0,0,1-.5-.49l-.48-43.42a.51.51,0,0,1,.5-.51h0a.51.51,0,0,1,.5.5l.48,43.42a.5.5,0,0,1-.5.5Z" transform="translate(-98.93 -45.7)"/><path class="cls-3" d="M283.8,355.65a4.59,4.59,0,0,1-.73-.06,4.36,4.36,0,0,1-3.56-5,4.3,4.3,0,0,1,1.77-2.82,4.35,4.35,0,1,1,2.52,7.9Zm0-7.7a3.29,3.29,0,0,0-1.93.62,3.35,3.35,0,1,0,2.5-.57A2.75,2.75,0,0,0,283.79,348Z" transform="translate(-98.93 -45.7)"/><path class="cls-3" d="M291.72,371.14a.46.46,0,0,1-.33-.13l-4.34-3.82a.49.49,0,0,1-.05-.7.51.51,0,0,1,.71-.05l4.34,3.82a.5.5,0,0,1,0,.71A.48.48,0,0,1,291.72,371.14Z" transform="translate(-98.93 -45.7)"/><path class="cls-3" d="M288.76,374.4a.5.5,0,0,1-.33-.12l-4.34-3.82a.51.51,0,0,1,0-.71.5.5,0,0,1,.71,0l4.34,3.82a.5.5,0,0,1-.33.87Z" transform="translate(-98.93 -45.7)"/><path class="cls-3" d="M285.85,377.48a.46.46,0,0,1-.33-.13l-4.35-3.82a.5.5,0,0,1,0-.7.49.49,0,0,1,.7-.05l4.35,3.82a.5.5,0,0,1-.33.88Z" transform="translate(-98.93 -45.7)"/><path class="cls-3" d="M296.56,368.1c-1.87,0-3.88-.2-4.3-1a.62.62,0,0,1,0-.55c.48-1,5.84-3.39,6.67-3.56a2.54,2.54,0,0,1,1.88.36,2.51,2.51,0,0,1-.87,4.54A28,28,0,0,1,296.56,368.1Zm-3.17-1.31a20,20,0,0,0,6.33.14,1.5,1.5,0,1,0-.6-2.94A28.69,28.69,0,0,0,293.39,366.79Z" transform="translate(-98.93 -45.7)"/><path class="cls-3" d="M296.12,375a3,3,0,0,1-.59-.07,2.46,2.46,0,0,1-1.54-1.13c-.28-.45-2.54-6.6-1.54-7.24a1,1,0,0,1,.77-.1c1.51.34,4.51,3.89,5,4.73h0a2.46,2.46,0,0,1,.3,1.89,2.41,2.41,0,0,1-1.12,1.54A2.45,2.45,0,0,1,296.12,375Zm-3-7.53a25.25,25.25,0,0,0,1.69,5.81,1.49,1.49,0,0,0,.92.67,1.47,1.47,0,0,0,1.14-.18,1.5,1.5,0,0,0,.49-2.06h0C296.74,370.66,294.13,367.87,293.15,367.48Z" transform="translate(-98.93 -45.7)"/><path class="cls-1" d="M372.28,267.34l-35.69-25c-.27-.17-22-1.32-22-1.32a2.21,2.21,0,0,0-.85,0l-43.46-9.46-2.51,8.91a49.05,49.05,0,0,0,0,26.68l19.12,67.71-.58.4a2.5,2.5,0,0,0-1,2.59l8.93,39.3a2.49,2.49,0,0,0,4,1.4l.82-.66,11,38.91a1.38,1.38,0,0,0,1.62,1l34.9-7.68a2.77,2.77,0,0,0,2.12-3.25l-12-59.16,38.18-30.63A30.69,30.69,0,0,0,372.28,267.34Zm-44,38.91-2.64-13.07,14.46,4.9Z" transform="translate(-98.93 -45.7)"/><path class="cls-3" d="M337.6,352.85a.49.49,0,0,1-.49-.4l-16.25-84.28a.49.49,0,0,1,.39-.58.5.5,0,0,1,.59.39l16.25,84.28a.5.5,0,0,1-.4.58Z" transform="translate(-98.93 -45.7)"/><path class="cls-3" d="M349.78,301.94a.51.51,0,0,1-.17,0l-23.54-8.05a.5.5,0,0,1-.31-.64.5.5,0,0,1,.63-.31l23.55,8a.5.5,0,0,1-.16,1Z" transform="translate(-98.93 -45.7)"/><path class="cls-21" d="M340,411.62l4.13,2.6,24,14.61a2,2,0,0,1-.7,3.71l-46,8.07a2.24,2.24,0,0,1-2.59-1.85l-4-21.48Z" transform="translate(-98.93 -45.7)"/><path class="cls-2" d="M368.14,428.83l-.83-.51a2,2,0,0,1-1.25.78l-46,8.07a2.22,2.22,0,0,1-1.56-.32l.35,1.91a2.24,2.24,0,0,0,2.59,1.85l46-8.07A2,2,0,0,0,368.14,428.83Z" transform="translate(-98.93 -45.7)"/><path class="cls-3" d="M318.7,438a.5.5,0,0,1-.09-1l42.73-7.73a.51.51,0,0,1,.58.4.49.49,0,0,1-.41.58L318.79,438Z" transform="translate(-98.93 -45.7)"/><path class="cls-3" d="M326.42,429.61a4.35,4.35,0,1,1,4.35-4.35A4.35,4.35,0,0,1,326.42,429.61Zm0-7.7a3.35,3.35,0,1,0,3.35,3.35A3.35,3.35,0,0,0,326.42,421.91Z" transform="translate(-98.93 -45.7)"/><path class="cls-3" d="M341.12,419.64a.53.53,0,0,1-.27-.08.5.5,0,0,1-.16-.69l3-4.91a.51.51,0,0,1,.69-.17.49.49,0,0,1,.16.69l-3,4.92A.5.5,0,0,1,341.12,419.64Z" transform="translate(-98.93 -45.7)"/><path class="cls-3" d="M344.83,422a.5.5,0,0,1-.26-.08.48.48,0,0,1-.16-.68l3-4.92a.49.49,0,0,1,.69-.16.5.5,0,0,1,.16.68l-3.05,4.92A.49.49,0,0,1,344.83,422Z" transform="translate(-98.93 -45.7)"/><path class="cls-3" d="M348.35,424.37a.51.51,0,0,1-.43-.76l3.05-4.92a.48.48,0,0,1,.68-.16.49.49,0,0,1,.17.68l-3.05,4.92A.49.49,0,0,1,348.35,424.37Z" transform="translate(-98.93 -45.7)"/><path class="cls-3" d="M340.24,414.4l-.19,0c-1.07-.3-4.3-5.18-4.61-6h0a2.49,2.49,0,1,1,4.65-1.81c.16.39,1.84,6.67.51,7.69A.59.59,0,0,1,340.24,414.4Zm.1-1h0ZM337.76,406a1.47,1.47,0,0,0-.54.1,1.5,1.5,0,0,0-.85,1.94h0a28.45,28.45,0,0,0,3.72,5.19,20.08,20.08,0,0,0-.93-6.27A1.49,1.49,0,0,0,337.76,406Z" transform="translate(-98.93 -45.7)"/><path class="cls-3" d="M340.5,414.33a.59.59,0,0,1-.47-.16,1,1,0,0,1-.23-.73c.09-1.55,3.09-5.1,3.82-5.74h0a2.49,2.49,0,1,1,3.29,3.75C346.56,411.76,342.11,414.32,340.5,414.33Zm.3-.78h0Zm4.47-5.47a1.51,1.51,0,0,0-1,.37h0c-.94.82-3.25,3.86-3.47,4.88a24.74,24.74,0,0,0,5.44-2.63,1.43,1.43,0,0,0,.51-1,1.47,1.47,0,0,0-.36-1.08A1.51,1.51,0,0,0,345.27,408.08Zm-1.32,0h0Z" transform="translate(-98.93 -45.7)"/><path class="cls-2" d="M336.75,123.55c-.6-1-1.18-1.93-1.72-2.75-1.86-2.84-4.22-5.85-4-9.06,1.09-20.23-20.22-26.33-35.93-22.33a12.35,12.35,0,0,0-.73-1.63c-2.57-4.82-7.56-7.16-11.16-5.25a6.68,6.68,0,0,0-3.25,5.17c-3.7.1-6.9,1.79-8.22,4.76-1.78,4,.49,9,5.12,12a42.61,42.61,0,0,1-8.52,5.66l-.81.43c-11,5.8-13.41,19.31-7.73,26.76l1.64,2.17c.25.34.51.66.79,1a3.86,3.86,0,0,1,.84,3.92,18.66,18.66,0,0,0-1.1,8c.85,10.56,10.55,19.6,22.92,21.26a28.83,28.83,0,0,0,22.2-5.86c6.66-5.52,14.28-10.13,22.06-14.48,6.36-3.56,10.74-9.48,11.35-16.5A20,20,0,0,0,336.75,123.55Z" transform="translate(-98.93 -45.7)"/><path class="cls-9" d="M330.54,131.37l-1.63-15.77c-2.78-4.26-10-5.37-12.7-8.46-2.15-2.47-3-3-3.12-5.06h0c-1,10.51-8.64,18.37-17,17.61v.12l-2.73.09a6.72,6.72,0,0,0-6.46,6.93V127a6.72,6.72,0,0,0,6.93,6.46l2.07-.07-3.19,20.47c-.71,6.18,25,7.58,25.68,1.4l.9-7.77A15,15,0,0,0,330.54,131.37Z" transform="translate(-98.93 -45.7)"/><path class="cls-21" d="M292.91,129a.51.51,0,0,1-.42-.22.5.5,0,0,1,.14-.69l1.7-1.11-1.94-2.17a.5.5,0,1,1,.74-.66l2.34,2.59a.53.53,0,0,1,.12.4.51.51,0,0,1-.22.36l-2.19,1.42A.45.45,0,0,1,292.91,129Z" transform="translate(-98.93 -45.7)"/><path class="cls-2" d="M330,122.6a1.3,1.3,0,1,1-1.54-1A1.3,1.3,0,0,1,330,122.6Z" transform="translate(-98.93 -45.7)"/><path class="cls-2" d="M319.46,123.34a1.42,1.42,0,1,1-1.36-1.48A1.43,1.43,0,0,1,319.46,123.34Z" transform="translate(-98.93 -45.7)"/><path class="cls-9" d="M317.21,128.74s-.37,4.61,5.8,4.6" transform="translate(-98.93 -45.7)"/><path class="cls-21" d="M323,133.84a6.6,6.6,0,0,1-5.06-1.78,4.76,4.76,0,0,1-1.22-3.36.51.51,0,0,1,.54-.46.52.52,0,0,1,.46.54,3.83,3.83,0,0,0,1,2.62,5.7,5.7,0,0,0,4.31,1.44h0a.5.5,0,1,1,0,1Z" transform="translate(-98.93 -45.7)"/><path class="cls-21" d="M320.3,140.94a.23.23,0,0,1-.18,0,2.3,2.3,0,0,0-2.53.55.28.28,0,0,1-.39,0,.27.27,0,0,1,0-.38,2.91,2.91,0,0,1,3.15-.69.27.27,0,0,1,.14.36A.26.26,0,0,1,320.3,140.94Z" transform="translate(-98.93 -45.7)"/><path class="cls-2" d="M312.88,118.31a4.12,4.12,0,0,0,1.7-.2c.59-.15,1.19-.28,1.71-.38s1.14-.2,1.74-.28a4,4,0,0,0,1.66-.44c.41-.27.49-.85-.17-1.42a4.74,4.74,0,0,0-3.81-.7,4.58,4.58,0,0,0-3.24,2C312.08,117.69,312.38,118.2,312.88,118.31Z" transform="translate(-98.93 -45.7)"/><path class="cls-2" d="M331.25,117.26a2.67,2.67,0,0,1-1.18-.07c-.42-.09-.83-.17-1.2-.22s-.78-.1-1.2-.13a2.51,2.51,0,0,1-1.16-.26c-.29-.2-.36-.65.09-1.13a3.06,3.06,0,0,1,2.62-.73,3,3,0,0,1,2.28,1.43C331.78,116.74,331.58,117.15,331.25,117.26Z" transform="translate(-98.93 -45.7)"/><path class="cls-9" d="M316.62,124.82a2,2,0,0,1,2.5.09" transform="translate(-98.93 -45.7)"/><path class="cls-21" d="M319.12,125.41a.5.5,0,0,1-.32-.11,1.49,1.49,0,0,0-1.88-.09.5.5,0,0,1-.7-.09.51.51,0,0,1,.09-.7,2.52,2.52,0,0,1,3.13.11.5.5,0,0,1,.07.7A.5.5,0,0,1,319.12,125.41Z" transform="translate(-98.93 -45.7)"/><path class="cls-9" d="M328.07,124a1.13,1.13,0,0,1,1.47.17" transform="translate(-98.93 -45.7)"/><path class="cls-21" d="M329.54,124.64a.5.5,0,0,1-.35-.15.62.62,0,0,0-.84-.11.5.5,0,0,1-.58-.82,1.64,1.64,0,0,1,2.13.22.51.51,0,0,1,0,.71A.51.51,0,0,1,329.54,124.64Z" transform="translate(-98.93 -45.7)"/><path class="cls-21" d="M319.3,147.49s-12.22.94-14.65-3.71h0s-.26,7.77,13.85,10.62Z" transform="translate(-98.93 -45.7)"/><path class="cls-9" d="M324,118.94l-.14,3a2.09,2.09,0,0,0,2,2.17h0a1,1,0,0,1,1,1.09h0a3.37,3.37,0,0,1-3.51,3.22l-1.22-.06" transform="translate(-98.93 -45.7)"/><path class="cls-21" d="M323.53,128.94h-.17l-1.23-.06a.49.49,0,0,1-.47-.52.5.5,0,0,1,.52-.48l1.22.06a2.91,2.91,0,0,0,2.06-.75,2.84,2.84,0,0,0,.93-2,.49.49,0,0,0-.14-.38.55.55,0,0,0-.38-.18,2.57,2.57,0,0,1-1.79-.84,2.5,2.5,0,0,1-.67-1.85l.13-3a.49.49,0,0,1,.52-.48.52.52,0,0,1,.48.52l-.14,3a1.59,1.59,0,0,0,1.52,1.65,1.54,1.54,0,0,1,1.47,1.61,3.87,3.87,0,0,1-3.86,3.7Z" transform="translate(-98.93 -45.7)"/><path class="cls-3" d="M292.66,136.28h-.18a3,3,0,0,1-2.83-3.19h0a3,3,0,1,1,3,3.2Zm-2-3.14a2,2,0,0,0,.5,1.46,2,2,0,0,0,3.52-1.21,2,2,0,0,0-.5-1.46,2,2,0,0,0-3.52,1.21Z" transform="translate(-98.93 -45.7)"/><path class="cls-22" d="M292.66,126.34" transform="translate(-98.93 -45.7)"/><path class="cls-9" d="M392.75,162.59l-6.38-4.9,4.14-11.17a3,3,0,0,0-1.25-3.61l-.14-.09a1.17,1.17,0,0,0-1.6.37l-10,18.39-.19-.2-2.22-5.12a2.63,2.63,0,0,0-2.63-1.59l-.44,0a1.25,1.25,0,0,0-1.11,1.57l2,7.19.81,5.25a3.81,3.81,0,0,0,.83,1.87l-.05.07L356.9,196l-14.38-18.55-17,30.37,14.58,20.25a20.14,20.14,0,0,0,35.48-5.51l12-36.73,7.23-14.18A7.28,7.28,0,0,0,392.75,162.59Z" transform="translate(-98.93 -45.7)"/><line class="cls-9" x1="258.45" y1="149.63" x2="252.71" y2="158.16"/><path class="cls-21" d="M351.64,204.35a.48.48,0,0,1-.28-.08.49.49,0,0,1-.13-.69L357,195a.5.5,0,0,1,.83.56l-5.73,8.53A.5.5,0,0,1,351.64,204.35Z" transform="translate(-98.93 -45.7)"/><path class="cls-21" d="M385.23,171.86a.51.51,0,0,1-.5-.49,9.78,9.78,0,0,0-7.31-9.31.5.5,0,0,1,.23-1c.08,0,7.82,1.93,8.08,10.25a.5.5,0,0,1-.48.52Z" transform="translate(-98.93 -45.7)"/><path class="cls-9" d="M387.21,156.66l0,.2L384,168.56a2.39,2.39,0,0,0,1.28,2.8l.7.33a.76.76,0,0,0,1.05-.44l3.77-11.06a2,2,0,0,0-1-2.36Z" transform="translate(-98.93 -45.7)"/><path class="cls-21" d="M386.26,172.26a1.25,1.25,0,0,1-.54-.12l-.7-.33a2.88,2.88,0,0,1-1.55-3.38l3.4-12.48,3.06,1.43a2.46,2.46,0,0,1,1.3,3l-3.77,11.07a1.28,1.28,0,0,1-.71.75A1.19,1.19,0,0,1,386.26,172.26Zm1.28-14.9-3.11,11.33a1.9,1.9,0,0,0,1,2.22l.7.33a.25.25,0,0,0,.21,0,.24.24,0,0,0,.15-.15L390.28,160a1.46,1.46,0,0,0-.78-1.75Z" transform="translate(-98.93 -45.7)"/><path class="cls-9" d="M391.1,159.07l-.05.18-2.88,10.5a2.16,2.16,0,0,0,1.15,2.52l.63.3a.69.69,0,0,0,.94-.4l3.39-9.93a1.75,1.75,0,0,0-.93-2.12Z" transform="translate(-98.93 -45.7)"/><path class="cls-21" d="M390.24,173.13a1.25,1.25,0,0,1-.5-.11l-.63-.3a2.65,2.65,0,0,1-1.42-3.1l3.07-11.27,2.8,1.32a2.26,2.26,0,0,1,1.2,2.72l-3.39,9.94a1.19,1.19,0,0,1-.66.71A1.27,1.27,0,0,1,390.24,173.13Zm1.19-13.36-2.78,10.12a1.66,1.66,0,0,0,.89,1.93l.63.3a.19.19,0,0,0,.15,0,.16.16,0,0,0,.1-.11l3.39-9.93a1.27,1.27,0,0,0-.67-1.51Z" transform="translate(-98.93 -45.7)"/><path class="cls-9" d="M394.26,160.89l-.05.17-2.61,9.51a2,2,0,0,0,1,2.28l.57.27a.63.63,0,0,0,.86-.36l3.07-9a1.6,1.6,0,0,0-.85-1.93Z" transform="translate(-98.93 -45.7)"/><path class="cls-21" d="M393.48,173.68a1,1,0,0,1-.48-.11l-.57-.27a2.43,2.43,0,0,1-1.31-2.86l2.8-10.26,2.58,1.21a2.09,2.09,0,0,1,1.11,2.53l-3.07,9a1.08,1.08,0,0,1-.62.67A1.12,1.12,0,0,1,393.48,173.68Zm1.1-12.09-2.5,9.11a1.45,1.45,0,0,0,.78,1.7l.57.27c.12,0,.15,0,.17-.07l3.06-9a1.08,1.08,0,0,0-.58-1.31Z" transform="translate(-98.93 -45.7)"/><path class="cls-12" d="M344.79,174.84l-16.05-14.12a20.85,20.85,0,0,0-13-5.24l-20.3-.84-.78-.08c-.68-.08-1.35-.12-2-.14v0h-.37c-.53,0-1.07,0-1.6,0l-13.57.26a22.5,22.5,0,0,0-20,17.36l-3.55,17.83a2.56,2.56,0,0,0,2.15,3l12.56,1.79-.21,44.07,69.7,3.65a3.16,3.16,0,0,0,3-4.51l-14.06-29.51,18.93-25.07A6.28,6.28,0,0,0,344.79,174.84Z" transform="translate(-98.93 -45.7)"/><path class="cls-9" d="M258.65,289.17a9.62,9.62,0,0,0,.49-1.49L288.67,198l-28.53-4.43L240.29,283l-6.65-.75a7.37,7.37,0,0,0-8.17,7.32v9.74a1.22,1.22,0,0,0,1.22,1.21,3.81,3.81,0,0,0,3.81-3.81v2.6a1.21,1.21,0,0,0,1.22,1.21,3.81,3.81,0,0,0,3.81-3.81v2.6a1.21,1.21,0,0,0,1.22,1.21,3.81,3.81,0,0,0,3.8-3.7,3.8,3.8,0,0,0,2.31.8h3.28a5,5,0,0,0,4.35-2.56,9.73,9.73,0,0,0,8.14-5.86h0Z" transform="translate(-98.93 -45.7)"/><path class="cls-21" d="M230.5,297.8a.37.37,0,0,1-.37-.38v-7.84a.37.37,0,0,1,.37-.38.38.38,0,0,1,.38.38v7.84A.38.38,0,0,1,230.5,297.8Z" transform="translate(-98.93 -45.7)"/><path class="cls-21" d="M235.53,297.8a.38.38,0,0,1-.38-.38v-7.84a.38.38,0,0,1,.38-.38.37.37,0,0,1,.37.38v7.84A.37.37,0,0,1,235.53,297.8Z" transform="translate(-98.93 -45.7)"/><path class="cls-3" d="M292.21,199a3.52,3.52,0,0,1-.56,0l-7.55-1.26a.5.5,0,1,1,.17-1l7.55,1.25a2.42,2.42,0,0,0,2.76-1.94l3.57-19.43a.5.5,0,0,1,1,.18l-3.58,19.43A3.42,3.42,0,0,1,292.21,199Z" transform="translate(-98.93 -45.7)"/><path class="cls-3" d="M326.72,208.91a.65.65,0,0,1-.2,0,.51.51,0,0,1-.26-.66l3.19-7.26a21.57,21.57,0,0,0,.42-16.38l-3.81-10a.5.5,0,1,1,.93-.35l3.81,10.05a22.5,22.5,0,0,1-.44,17.13l-3.18,7.26A.5.5,0,0,1,326.72,208.91Z" transform="translate(-98.93 -45.7)"/><path class="cls-3" d="M318.33,156.25h0l-25.67-1.35a.5.5,0,0,1-.47-.52.52.52,0,0,1,.53-.48l25.67,1.35a.5.5,0,0,1,0,1Z" transform="translate(-98.93 -45.7)"/></svg>