<?xml version="1.0" encoding="UTF-8"?> <!-- Generator: Adobe Illustrator 16.0.0, SVG Export Plug-In . SVG Version: 6.00 Build 0) --> <svg xmlns="http://www.w3.org/2000/svg" xmlns:xlink="http://www.w3.org/1999/xlink" id="Capa_1" x="0px" y="0px" width="512px" height="512px" viewBox="0 0 512 512" xml:space="preserve"> <circle fill="#412E8D" cx="257" cy="257" r="238.5"></circle> <g id="g118-9-7-15-02-30"> <g id="g124-3-6-2-4-5" transform="translate(789.2363,208.2295)"> <path id="path126-4-1-7-1-1" fill="#7BC043" d="M-431.336,71.103c-10.235,0-18.536-8.302-18.536-18.534 c0-10.238,8.301-18.53,18.536-18.53c7.715,0,14.332,4.718,17.122,11.425h12.338c-0.232-0.974-0.497-1.946-0.826-2.885l7.098-6.465 l-3.49-6.227l-9.478,2.659c-0.836-0.945-1.72-1.839-2.665-2.676l2.908-9.029l-6.121-3.668l-7.239,6.649 c-1.215-0.413-2.467-0.741-3.747-0.996l-2.221-9.232l-7.141-0.142l-2.457,9.381c-1.335,0.264-2.641,0.613-3.911,1.051 l-6.709-6.994l-6.263,3.425l2.608,9.64c-0.898,0.807-1.746,1.663-2.54,2.562l-9.476-2.639l-3.731,6.089l7.176,7 c-0.397,1.187-0.721,2.405-0.968,3.649l-9.258,2.55l-0.205,7.135l9.541,2.604c0.279,1.319,0.65,2.607,1.096,3.855l-7.313,6.368 l3.366,6.294l9.868-2.679c0.772,0.857,1.588,1.672,2.444,2.441l-2.293,9.891l6.079,3.417l7.186-7.033 c1.091,0.352,2.212,0.639,3.356,0.867l2.26,9.732h7.138l2.352-9.739c1.308-0.257,2.586-0.6,3.82-1.013l6.616,7.106l6.191-3.546 l-2.619-9.413c0.999-0.866,1.93-1.792,2.802-2.781l9.2,2.775l3.606-6.158l-5.771-5.678h-14.846 C-419.833,68.155-425.242,71.103-431.336,71.103"></path> </g> <g id="g128-4-4-6-0-02" transform="translate(375.2217,284.9775)"> <path id="path130-6-2-1-3-51" fill="#FFFFFF" d="M-307.874-59.506h13.496l16.95,53.354l17.224-53.562h11.017l17.225,53.562 l16.948-53.354h13.088l-23.038,72.476h-13.052l-16.881-51.711l-15.998,51.711h-13.416L-307.874-59.506z"></path> </g> <g id="g132-0-3-4-7-0" transform="translate(534.9316,284.9775)"> <path id="path134-6-2-2-3-4" fill="#FFFFFF" d="M-355.501-59.506h12.296v29.914h31.245v-29.914h12.293v71.96h-12.293v-30.326 h-31.245v30.326h-12.296V-59.506z"></path> </g> <g id="g136-6-2-32-95-06" transform="translate(626.4072,284.9775)"> <path id="path138-1-1-21-97-48" fill="#FFFFFF" d="M-382.776-59.506h14.139l20.909,30.01l20.908-30.01h14.716v71.96h-13.311 v-53.328l-22.151,32.206l-22.679-32.001v53.123h-12.531V-59.506z"></path> </g> <g id="g140-8-6-68-2-95" transform="translate(840.2109,208.6162)"> <path id="path142-4-8-5-0-622" fill="#FFFFFF" d="M-446.536,70.445v13.486c0,0,10.756,5.968,22.975,5.968 c12.222,0,26.002-6.006,26.002-20.248c0-14.246-8.666-20.124-21.62-23.608c-12.949-3.488-15.237-5.812-15.237-9.764 c0-3.485,2.689-8.801,14.841-8.801c10.759,0,17.4,6.178,17.4,6.178V20.635c0,0-10.096-4.844-19.194-4.844 c-9.095,0-25.166,2.158-25.166,21.584c0,25.502,35.727,15.339,35.727,31.675c0,6.625-6.274,8.768-15.19,8.668 C-435.815,77.606-446.536,70.445-446.536,70.445"></path> </g> <g id="g144-9-5-7-2-21" transform="translate(819.4883,279.8311)"> <path id="path146-6-7-61-8-74" fill="#D9DBDC" d="M-440.357-50.75c-6.647,0-12.041,5.392-12.041,12.041 c0,6.653,5.394,12.041,12.041,12.041c6.653,0,12.041-5.388,12.041-12.041C-428.316-45.358-433.704-50.75-440.357-50.75 M-421.066-34.707c-0.173,0.847-0.398,1.674-0.682,2.477l4.459,4.386l-2.347,4l-5.974-1.801c-0.568,0.643-1.179,1.244-1.82,1.802 l1.702,6.122l-4.025,2.302l-4.304-4.618c-0.802,0.271-1.629,0.488-2.476,0.661l-1.524,6.325h-4.644l-1.469-6.325 c-0.742-0.148-1.466-0.33-2.176-0.562l-4.675,4.569l-3.943-2.219l1.49-6.429c-0.56-0.501-1.087-1.021-1.582-1.584l-6.419,1.742 l-2.188-4.095l4.753-4.132c-0.288-0.812-0.526-1.647-0.707-2.509l-6.206-1.688l0.137-4.637l6.017-1.651 c0.163-0.809,0.37-1.602,0.625-2.374l-4.661-4.549l2.423-3.952l6.154,1.711c0.518-0.584,1.072-1.141,1.656-1.663l-1.699-6.267 l4.074-2.227l4.351,4.55c0.828-0.283,1.678-0.513,2.548-0.687l1.596-6.09l4.637,0.09l1.444,5.995 c0.826,0.164,1.643,0.382,2.429,0.648l4.709-4.317l3.978,2.383l-1.894,5.866c0.612,0.541,1.194,1.125,1.734,1.742l6.157-1.729 l2.263,4.041l-4.604,4.204c0.317,0.921,0.571,1.874,0.757,2.855l6.313,1.59l-0.048,4.64L-421.066-34.707z"></path> </g> </g> </svg> 